<?xml version="1.0" encoding="iso-8859-1"?>
<!-- Generator: Adobe Illustrator 19.0.0, SVG Export Plug-In . SVG Version: 6.00 Build 0)  -->
<svg width="80px" height="80px" version="1.1" id="Layer_1" xmlns="http://www.w3.org/2000/svg" xmlns:xlink="http://www.w3.org/1999/xlink" x="0px" y="0px"
	 viewBox="0 0 512.002 512.002" style="enable-background:new 0 0 512.002 512.002;" xml:space="preserve">
<path style="fill:#FA597D;" d="M375.716,37.95c-59.858,0-102.614,51.307-119.716,111.165
	C238.898,89.257,196.142,37.95,136.284,37.95c-76.96,0-128.267,65.979-128.267,136.818C8.017,362.894,256,474.059,256,474.059
	s247.983-111.165,247.983-299.29C503.983,103.929,452.676,37.95,375.716,37.95z"/>
<path style="fill:#E0365C;" d="M42.221,166.217c0-54.99,30.922-107.043,80.756-127.586C53.468,45.737,8.017,108.095,8.017,174.768
	C8.017,362.894,256,474.059,256,474.059s9.727-4.362,25.319-12.811C237.044,439.247,42.221,332.967,42.221,166.217z"/>
<path d="M466.766,66.221c-3.201-3.061-8.276-2.947-11.335,0.254c-3.059,3.2-2.945,8.274,0.255,11.335
	c25.599,24.471,40.28,59.812,40.28,96.958c0,93.944-65.692,168.107-120.801,213.78c-52.475,43.49-105.643,70.187-119.168,76.659
	c-13.494-6.451-66.425-33.013-118.879-76.423C81.88,343.069,16.033,268.831,16.033,174.768c0-63.313,44.98-128.802,120.251-128.802
	c60.457,0,98.122,56.752,112.008,105.351c0.972,3.401,4.171,5.814,7.708,5.814c3.538,0,6.736-2.413,7.708-5.814
	c13.885-48.599,51.552-105.351,112.008-105.351c16.985,0,33.134,3.413,47.995,10.147c4.032,1.825,8.783,0.04,10.61-3.994
	c1.827-4.032,0.04-8.783-3.994-10.611c-16.955-7.681-35.329-11.575-54.611-11.575c-30.144,0-58.347,12.27-81.56,35.483
	c-15.779,15.78-28.751,35.924-38.156,59.083c-9.404-23.159-22.377-43.304-38.156-59.083c-23.213-23.213-51.417-35.483-81.56-35.483
	c-38.402,0-73.559,15.821-98.996,44.546C13.591,101.241,0,137.795,0,174.768c0,44.448,13.452,88.322,39.983,130.405
	c21.022,33.345,50.264,65.631,86.915,95.963c62.12,51.41,123.252,79.084,125.824,80.237c2.068,0.928,4.489,0.928,6.559,0
	c2.572-1.152,63.704-28.828,125.824-80.237c36.65-30.332,65.893-62.618,86.915-95.963c26.531-42.083,39.983-85.957,39.983-130.405
	C512,133.266,495.512,93.702,466.766,66.221z"/>
<g>
</g>
<g>
</g>
<g>
</g>
<g>
</g>
<g>
</g>
<g>
</g>
<g>
</g>
<g>
</g>
<g>
</g>
<g>
</g>
<g>
</g>
<g>
</g>
<g>
</g>
<g>
</g>
<g>
</g>
</svg>
