<svg width="200px" xmlns="http://www.w3.org/2000/svg" viewBox="0 0 1139.41 164.67"><defs><style>.cls-1{fill:#fbb03b;}</style></defs><title>Asset 2</title><g id="Layer_2" data-name="Layer 2"><g id="Layer_2-2" data-name="Layer 2"><path class="cls-1" d="M0,162.49,2.78,1.79H33.13L56,113.09,79.76,1.79h29.36l3,160.7H90.27L87.89,50.79,65.08,162.49H47.42L24.21,50.39,22,162.49Z"/><path class="cls-1" d="M127.77,162.49,159.91,1.79h31.35l32.14,160.7H196.22l-6.35-37.1h-28l-6.55,37.1Zm37.1-55.75H186.7L175.78,39.28Z"/><path class="cls-1" d="M238.68,162.49V1.79h38.49q16.26,0,27.48,3.86a31.6,31.6,0,0,1,17.06,13.2q5.85,9.33,5.85,25.39a77.29,77.29,0,0,1-1.79,17.46,33.17,33.17,0,0,1-6,13.2,27.3,27.3,0,0,1-11.8,8.43l22.42,79.16H301L281.53,88.88H268v73.61ZM268,70.43h9.13q8.52,0,13.59-2.48A14.48,14.48,0,0,0,298,60q2.17-5.46,2.18-14,0-12.11-4.46-18.15t-17-6.06H268Z"/><path class="cls-1" d="M349.58,162.49V1.79H379V72.42L410.69,1.79h28L407.91,73.61l33.93,88.88H412.67l-27-73.21L379,101.58v60.91Z"/><path class="cls-1" d="M453.35,162.49V1.79h67.46V22.42h-38.1V68.65h30V89.08h-30v53.17H521.2v20.24Z"/><path class="cls-1" d="M554.33,162.49V23.41H528.74V1.79H608.9V23.41H583.7V162.49Z"/><path class="cls-1" d="M624.37,162.49V1.79h29v160.7Z"/><path class="cls-1" d="M678.13,162.49V1.79h20.44l39.08,91.66V1.79h24.21v160.7H742.42l-39.29-96v96Z"/><path class="cls-1" d="M826.54,164.67q-15.87,0-25.2-6.74T788,138.78q-4.07-12.39-4.07-29.26v-54q0-17.25,4-29.76t14-19.14Q811.86,0,829.52,0,846,0,855.7,5.56a31.71,31.71,0,0,1,14,16Q874,31.94,874,46.82v8.34H846V46a69.72,69.72,0,0,0-1.09-13.29,14.58,14.58,0,0,0-4.36-8.44q-3.28-2.86-10.62-2.87-7.74,0-11.21,3.77a18,18,0,0,0-4.36,9.92,93.52,93.52,0,0,0-.9,13.49v67.26a66.77,66.77,0,0,0,1.39,14.48,17,17,0,0,0,5.16,9.42q3.76,3.28,10.72,3.28,7.14,0,10.91-3.57a19.44,19.44,0,0,0,5.26-9.92,67,67,0,0,0,1.48-15.08V99.4H831.1V81h43.65v81.54H855.9l-2.18-15.87a30.71,30.71,0,0,1-9.62,13Q837.65,164.68,826.54,164.67Z"/><path d="M940.42,164.67q-17.65,0-27.68-6.94a36.14,36.14,0,0,1-14-18.95,88,88,0,0,1-4-27.67V53.77q0-16.47,4-28.57a34.19,34.19,0,0,1,14-18.65Q922.76,0,940.42,0q16.67,0,26.09,5.65A31.12,31.12,0,0,1,979.9,21.82a68.88,68.88,0,0,1,4,24.41V59.72H955.7V45.83a100.23,100.23,0,0,0-.7-12.3,15.26,15.26,0,0,0-3.77-8.83q-3.08-3.27-10.61-3.27t-11,3.47a16.74,16.74,0,0,0-4.47,9.32,79.77,79.77,0,0,0-1,13.2v69.84a61.54,61.54,0,0,0,1.39,14.38,14.88,14.88,0,0,0,5.06,8.53c2.45,1.92,5.78,2.88,10,2.88q7.33,0,10.41-3.47a17.1,17.1,0,0,0,3.87-9.23,94.68,94.68,0,0,0,.8-12.9V103h28.17v12.9a78,78,0,0,1-3.77,25.29,32.85,32.85,0,0,1-13.19,17.26Q957.48,164.68,940.42,164.67Z"/><path d="M1048,164.67q-17.06,0-27.18-6.34a35.14,35.14,0,0,1-14.48-18.26q-4.37-11.9-4.37-28.17V51.78q0-16.26,4.37-27.87a34.2,34.2,0,0,1,14.48-17.76Q1030.9,0,1048,0q17.46,0,27.48,6.15a34.85,34.85,0,0,1,14.49,17.76q4.45,11.61,4.46,27.87V112.1q0,16.07-4.46,27.87a36.35,36.35,0,0,1-14.49,18.26Q1065.41,164.67,1048,164.67Zm0-21.62q7.35,0,10.82-3.18a15.94,15.94,0,0,0,4.66-8.73,57.93,57.93,0,0,0,1.19-12.1V45a56.35,56.35,0,0,0-1.19-12.11,15.33,15.33,0,0,0-4.66-8.43q-3.48-3.08-10.82-3.07-6.95,0-10.51,3.07a15,15,0,0,0-4.76,8.43A55.72,55.72,0,0,0,1031.49,45v74a62.56,62.56,0,0,0,1.09,12.1,15.1,15.1,0,0,0,4.66,8.73Q1040.81,143.05,1048,143.05Z"/><path d="M1113.23,162.49V135.31h26.18v27.18Z"/></g></g></svg>